Coordinates
version=1
nRows=22
nColumns=24
inDegrees=yes

Units are S.I. units (second, meters, Newtons, ...)
Angles are in degrees.

endheader
time	pelvis_tilt	pelvis_list	pelvis_rotation	pelvis_tx	pelvis_ty	pelvis_tz	hip_flexion_r	hip_adduction_r	hip_rotation_r	knee_angle_r	ankle_angle_r	subtalar_angle_r	mtp_angle_r	hip_flexion_l	hip_adduction_l	hip_rotation_l	knee_angle_l	ankle_angle_l	subtalar_angle_l	mtp_angle_l	lumbar_extension	lumbar_bending	lumbar_rotation
      1.25000000	      1.88490708	     -5.99428761	     -4.38032897	      0.00837631	      1.04636812	      0.30689368	    -21.72813440	      9.95004387	      0.31345791	     -5.28078864	      3.59616674	     -7.00431221	      1.98827967	     20.91970615	     -3.28697706	     -8.31682966	      4.17091212	     15.41316471	      6.45292016	     -6.29491039	      0.73851836	      9.75192805	      3.53884056
      1.25416667	      1.86152291	     -5.92222793	     -4.32973495	      0.01473415	      1.04602481	      0.30683401	    -21.81642222	      9.85391036	      0.20108970	     -5.67539772	      3.09964926	     -6.98414296	      2.06746177	     20.84572875	     -3.16300836	     -8.24404691	      3.96206941	     15.85215141	      6.55708377	     -6.27022410	      0.80312732	      9.64153574	      3.55008470
      1.25833333	      1.85665395	     -5.90689765	     -4.37945312	      0.02089732	      1.04579705	      0.30689446	    -21.88386799	      9.77956013	      0.21215675	     -6.19107754	      2.98709951	     -7.00121506	      2.08558277	     20.73354974	     -3.13952507	     -8.14613409	      3.76330141	     15.87663112	      6.59600082	     -6.26520899	      0.86298802	      9.58729724	      3.55368234
      1.26250000	      1.85439653	     -5.88035597	     -4.43554744	      0.02712327	      1.04560531	      0.30695759	    -21.93410552	      9.68754968	      0.18870889	     -6.74093643	      2.80084788	     -7.00639048	      2.10606003	     20.60531930	     -3.10752698	     -8.05190635	      3.54895548	     15.92738517	      6.60734446	     -6.25863732	      0.92336056	      9.50968650	      3.56054412
      1.26666667	      1.85346436	     -5.84098850	     -4.48691998	      0.03342524	      1.04544175	      0.30700162	    -21.97041073	      9.57971553	      0.12944048	     -7.31561721	      2.53948744	     -6.99567099	      2.13068273	     20.46603886	     -3.06079608	     -7.96137880	      3.32225642	     15.98514857	      6.58678667	     -6.25049537	      0.98273192	      9.41356249	      3.56976837
      1.27083333	      1.84586199	     -5.70787224	     -4.50755935	      0.04007083	      1.04529959	      0.30692754	    -21.99243364	      9.37016639	     -0.13531273	     -7.85597567	      1.83084874	     -6.88351683	      2.21537760	     20.30197308	     -2.89150723	     -7.87552485	      3.09908177	     16.09619483	      6.38908796	     -6.22591782	      0.99895975	      9.24482439	      3.57862894
      1.27500000	      1.88407156	     -5.69412917	     -4.53270615	      0.04631800	      1.04523106	      0.30697272	    -22.03706361	      9.29493880	     -0.14176969	     -8.48831331	      1.67382200	     -6.87494139	      2.23985180	     20.12153174	     -2.87094783	     -7.75519266	      2.83833291	     16.05093797	      6.36374856	     -6.21945577	      1.08642914	      9.15971521	      3.58796771
      1.27916667	      1.94719930	     -5.56326324	     -4.52094885	      0.05294294	      1.04522562	      0.30682394	    -22.08875773	      9.08516371	     -0.47103651	     -9.10083596	      0.91808136	     -6.68023876	      2.39304690	     19.86914459	     -2.68891380	     -7.60071649	      2.63642037	     15.83231032	      5.91232432	     -6.18201547	      1.11120070	      8.93910171	      3.58813896
      1.28333333	      2.06714634	     -5.44553239	     -4.51763484	      0.05947771	      1.04534087	      0.30661910	    -22.18338079	      8.86868705	     -0.70000725	     -9.76397740	      0.49434168	     -6.43732857	      2.83236943	     19.49750659	     -2.51773723	     -7.00831350	      2.55084813	     15.40853541	      5.00978923	     -6.06755730	      1.08113885	      8.78836790	      3.51306248
      1.28750000	      2.08281379	     -5.41874975	     -4.57502148	      0.06579645	      1.04538380	      0.30662950	    -22.12508244	      8.75422246	     -0.76723434	    -10.53891686	      0.34033688	     -6.45078394	      2.86153007	     19.31311388	     -2.49206542	     -6.95003004	      2.29659767	     15.34297281	      4.98703226	     -6.05919847	      1.10947986	      8.69470898	      3.51540552
      1.29166667	      2.10671463	     -5.24053140	     -4.61566113	      0.07261462	      1.04548343	      0.30645922	    -22.07498865	      8.45733070	     -1.09402442	    -11.25565174	     -0.47274244	     -6.15837226	      3.14346711	     19.04706207	     -2.27141663	     -6.80939583	      2.17186253	     14.80066989	      4.46312555	     -5.98263654	      1.18782006	      8.46043972	      3.51076981
      1.29583333	      2.13688055	     -5.20482071	     -4.67494338	      0.07894257	      1.04562227	      0.30644327	    -21.98281756	      8.32187611	     -1.19391170	    -12.10681863	     -0.66113979	     -6.16252387	      3.17904926	     18.83317545	     -2.23499318	     -6.73980845	      1.93221481	     14.69173615	      4.41663039	     -5.97222513	      1.21207833	      8.36134426	      3.51191678
      1.30000000	      2.16815546	     -5.02321929	     -4.67782873	      0.08574058	      1.04578785	      0.30619619	    -21.88759840	      8.02377336	     -1.60378032	    -12.89678659	     -1.56851927	     -5.87138643	      3.37000044	     18.58873132	     -1.99612733	     -6.77626653	      1.76557633	     14.01647564	      3.90101665	     -5.92215053	      1.25760126	      8.10910434	      3.51721992
      1.30416667	      2.29247821	     -4.83616793	     -4.71687426	      0.09247317	      1.04614104	      0.30594307	    -21.88625762	      7.68488032	     -1.83321340	    -13.70727325	     -2.20393721	     -5.57477762	      3.89207883	     18.14988809	     -1.75581693	     -6.17503241	      1.77688305	     13.24740008	      2.85987773	     -5.75674019	      1.25697471	      7.89327709	      3.45723737
      1.30833333	      2.31409258	     -4.70048540	     -4.74793316	      0.09907433	      1.04638688	      0.30573539	    -21.72050087	      7.42108986	     -2.14311989	    -14.61950824	     -2.83496246	     -5.38098914	      4.24736911	     17.91615022	     -1.58227010	     -6.11148842	      1.60421756	     12.73172299	      2.42931607	     -5.63963084	      1.28532064	      7.68970462	      3.43360309
      1.31250000	      2.32545747	     -4.57555253	     -4.75994995	      0.10561976	      1.04663836	      0.30551303	    -21.52422610	      7.17334479	     -2.43107409	    -15.55493201	     -3.45921357	     -5.22723582	      4.46720055	     17.72123794	     -1.41927926	     -6.13896067	      1.37814991	     12.25018357	      2.11730376	     -5.56824676	      1.29721368	      7.48368989	      3.42858458
      1.31666667	      2.39796132	     -4.38841823	     -4.82820668	      0.11232099	      1.04706470	      0.30535911	    -21.39856653	      6.82353135	     -2.60176519	    -16.45869491	     -4.25938670	     -5.00046798	      4.99031915	     17.36508784	     -1.20006222	     -5.77419700	      1.33229076	     11.47593757	      1.42769532	     -5.38623429	      1.39536085	      7.25768151	      3.38794983
      1.32083333	      2.41265580	     -4.21286467	     -4.86181708	      0.11897496	      1.04741657	      0.30510674	    -21.17141076	      6.49566032	     -2.89836225	    -17.42858026	     -5.03455064	     -4.79404750	      5.40080957	     17.13537713	     -0.98149158	     -5.71366668	      1.16205267	     10.87869089	      0.98904782	     -5.24029398	      1.42940513	      7.02218592	      3.36749012
      1.32500000	      2.43430261	     -4.05994818	     -4.85258857	      0.12548527	      1.04778252	      0.30483039	    -20.92783392	      6.20582968	     -3.20220509	    -18.42495146	     -5.76556179	     -4.61383175	      5.63582657	     16.94797808	     -0.78112748	     -5.78010669	      0.90292877	     10.37702052	      0.69365885	     -5.15860100	      1.43017435	      6.77845175	      3.36596716
      1.32916667	      2.46906539	     -3.86544372	     -4.89769751	      0.13211067	      1.04823902	      0.30464181	    -20.69222796	      5.84568935	     -3.43048693	    -19.41132540	     -6.67671139	     -4.38695833	      5.89377059	     16.69722120	     -0.55301893	     -5.73360530	      0.73091213	      9.74855594	      0.36280037	     -5.06853445	      1.48664348	      6.51664576	      3.35837633
      1.33333333	      2.50504657	     -3.68548282	     -4.90759386	      0.13858644	      1.04870147	      0.30419744	    -20.42773106	      5.48824207	     -3.67873893	    -20.43083311	     -7.57789433	     -4.36453504	      7.08848907	     16.40988143	     -0.30912184	     -5.09864527	      0.65543027	      8.80530926	     -1.10372146	     -4.61231807	      1.47604789	      6.30863395	      3.21224532
      1.33750000	      2.53104942	     -3.45886343	     -4.90691600	      0.14523614	      1.04918105	      0.30396564	    -20.15755040	      5.10208330	     -3.96162466	    -21.43535055	     -8.46900090	     -4.02035002	      7.32062440	     16.20916126	     -0.03635097	     -5.27078847	      0.39586717	      8.38879726	     -1.07457160	     -4.52641447	      1.57998650	      6.00160730	      3.24081248
